# xmcd
#
# Track frame offsets: 
#        150
#        16711
#        34659
#        48501
#        69204
#
# Disc length: 1124 seconds
#
# Revision: 0
# Processed by: cddbd v1.5.2PL0 Copyright (c) Steve Scherf et al.
# Submitted via: ExactAudioCopyFreeDBPlugin 1.0
#
DISCID=31046205
DTITLE=The Murlocks - The Murlocks
DYEAR=2012
DGENRE=Blues
TTITLE0=Step And Stagger
TTITLE1=Dead Regrets
TTITLE2=Casual Fiend
TTITLE3=Occupied
TTITLE4=Delusional Blues
EXTD=
EXTT0=
EXTT1=
EXTT2=
EXTT3=
EXTT4=
PLAYORDER=
